HIERARCHY
ROOT mixamorig:Hips
{
	OFFSET 0.000000 35.069874 -0.029489
	CHANNELS 6 Xposition Yposition Zposition Xrotation Yrotation Zrotation
	JOINT mixamorig:Spine
	{
		OFFSET 0.000000 6.876060 0.125662
		CHANNELS 3 Xrotation Yrotation Zrotation
		JOINT mixamorig:Spine1
		{
			OFFSET 0.000000 8.022060 0.146603
			CHANNELS 3 Xrotation Yrotation Zrotation
			JOINT mixamorig:Spine2
			{
				OFFSET 0.000000 9.168079 0.167547
				CHANNELS 3 Xrotation Yrotation Zrotation
				JOINT mixamorig:Neck
				{
					OFFSET 0.000000 10.314075 0.188489
					CHANNELS 3 Xrotation Yrotation Zrotation
					JOINT mixamorig:Head
					{
						OFFSET 0.000000 7.643753 -2.377445
						CHANNELS 3 Xrotation Yrotation Zrotation
						JOINT mixamorig:HeadTop_End
						{
							OFFSET 0.000000 43.788605 -13.619637
							CHANNELS 3 Xrotation Yrotation Zrotation
							End Site
							{
								OFFSET 0.000000 45.857788 0.000000
							}
						}
					}
				}
				JOINT mixamorig:LeftShoulder
				{
					OFFSET 4.392187 8.825001 0.174995
					CHANNELS 3 Xrotation Yrotation Zrotation
					JOINT mixamorig:LeftArm
					{
						OFFSET 8.774866 -2.970879 -0.026997
						CHANNELS 3 Xrotation Yrotation Zrotation
						JOINT mixamorig:LeftForeArm
						{
							OFFSET 8.450586 -0.797432 -0.648343
							CHANNELS 3 Xrotation Yrotation Zrotation
							JOINT mixamorig:LeftHand
							{
								OFFSET 18.458662 0.962311 0.193148
								CHANNELS 3 Xrotation Yrotation Zrotation
								JOINT mixamorig:LeftHandThumb1
								{
									OFFSET 2.379990 -1.333382 2.680594
									CHANNELS 3 Xrotation Yrotation Zrotation
									JOINT mixamorig:LeftHandThumb2
									{
										OFFSET 1.903984 -1.066746 2.144473
										CHANNELS 3 Xrotation Yrotation Zrotation
										JOINT mixamorig:LeftHandThumb3
										{
											OFFSET 0.966393 -1.489639 2.964555
											CHANNELS 3 Xrotation Yrotation Zrotation
											JOINT mixamorig:LeftHandThumb4
											{
												OFFSET 1.205181 -0.823021 1.625701
												CHANNELS 3 Xrotation Yrotation Zrotation
												End Site
												{
													OFFSET 1.050617 -0.818157 1.731923
												}
											}
										}
									}
								}
								JOINT mixamorig:LeftHandIndex1
								{
									OFFSET 7.830624 -0.787468 2.563931
									CHANNELS 3 Xrotation Yrotation Zrotation
									JOINT mixamorig:LeftHandIndex2
									{
										OFFSET 3.312897 -0.052605 1.515312
										CHANNELS 3 Xrotation Yrotation Zrotation
										JOINT mixamorig:LeftHandIndex3
										{
											OFFSET 3.460667 -0.207008 1.581951
											CHANNELS 3 Xrotation Yrotation Zrotation
											JOINT mixamorig:LeftHandIndex4
											{
												OFFSET 2.183182 0.110458 0.999585
												CHANNELS 3 Xrotation Yrotation Zrotation
												End Site
												{
													OFFSET 2.183868 0.110451 0.998074
												}
											}
										}
									}
								}
								JOINT mixamorig:LeftHandMiddle1
								{
									OFFSET 8.556145 -0.261200 0.258753
									CHANNELS 3 Xrotation Yrotation Zrotation
									JOINT mixamorig:LeftHandMiddle2
									{
										OFFSET 3.828903 -0.489014 -0.111505
										CHANNELS 3 Xrotation Yrotation Zrotation
										JOINT mixamorig:LeftHandMiddle3
										{
											OFFSET 3.696209 -0.166595 -0.107596
											CHANNELS 3 Xrotation Yrotation Zrotation
											JOINT mixamorig:LeftHandMiddle4
											{
												OFFSET 2.259281 0.534500 -0.065675
												CHANNELS 3 Xrotation Yrotation Zrotation
												End Site
												{
													OFFSET 2.259735 0.534134 -0.051267
												}
											}
										}
									}
								}
								JOINT mixamorig:LeftHandRing1
								{
									OFFSET 8.509293 -0.556679 -3.044941
									CHANNELS 3 Xrotation Yrotation Zrotation
									JOINT mixamorig:LeftHandRing2
									{
										OFFSET 2.995171 -0.303261 -0.843591
										CHANNELS 3 Xrotation Yrotation Zrotation
										JOINT mixamorig:LeftHandRing3
										{
											OFFSET 2.968273 -0.101997 -0.834287
											CHANNELS 3 Xrotation Yrotation Zrotation
											JOINT mixamorig:LeftHandRing4
											{
												OFFSET 1.521358 -0.461468 -0.418735
												CHANNELS 3 Xrotation Yrotation Zrotation
												End Site
												{
													OFFSET 1.516514 -0.460747 -0.436712
												}
											}
										}
									}
								}
							}
						}
					}
				}
				JOINT mixamorig:RightShoulder
				{
					OFFSET -4.392150 8.825024 0.141388
					CHANNELS 3 Xrotation Yrotation Zrotation
					JOINT mixamorig:RightArm
					{
						OFFSET -8.774886 -2.970947 -0.094209
						CHANNELS 3 Xrotation Yrotation Zrotation
						JOINT mixamorig:RightForeArm
						{
							OFFSET -8.450586 -0.797386 -0.330665
							CHANNELS 3 Xrotation Yrotation Zrotation
							JOINT mixamorig:RightHand
							{
								OFFSET -18.458664 0.962341 0.025780
								CHANNELS 3 Xrotation Yrotation Zrotation
								JOINT mixamorig:RightHandThumb1
								{
									OFFSET -2.390282 -1.240040 2.604684
									CHANNELS 3 Xrotation Yrotation Zrotation
									JOINT mixamorig:RightHandThumb2
									{
										OFFSET -1.912228 -0.992111 2.083740
										CHANNELS 3 Xrotation Yrotation Zrotation
										JOINT mixamorig:RightHandThumb3
										{
											OFFSET -0.876358 -1.555370 2.930126
											CHANNELS 3 Xrotation Yrotation Zrotation
											JOINT mixamorig:RightHandThumb4
											{
												OFFSET -1.227077 -0.755932 1.835223
												CHANNELS 3 Xrotation Yrotation Zrotation
												End Site
												{
													OFFSET -1.124962 -0.750702 1.901603
												}
											}
										}
									}
								}
								JOINT mixamorig:RightHandIndex1
								{
									OFFSET -8.716801 -0.633743 3.098187
									CHANNELS 3 Xrotation Yrotation Zrotation
									JOINT mixamorig:RightHandIndex2
									{
										OFFSET -3.319706 -0.240585 1.198087
										CHANNELS 3 Xrotation Yrotation Zrotation
										JOINT mixamorig:RightHandIndex3
										{
											OFFSET -3.153255 -0.154724 1.138827
											CHANNELS 3 Xrotation Yrotation Zrotation
											JOINT mixamorig:RightHandIndex4
											{
												OFFSET -1.818684 -0.003197 0.655154
												CHANNELS 3 Xrotation Yrotation Zrotation
												End Site
												{
													OFFSET -1.818668 -0.003197 0.655188
												}
											}
										}
									}
								}
								JOINT mixamorig:RightHandMiddle1
								{
									OFFSET -8.158691 -0.528496 0.196552
									CHANNELS 3 Xrotation Yrotation Zrotation
									JOINT mixamorig:RightHandMiddle2
									{
										OFFSET -3.890194 -0.261169 -0.136423
										CHANNELS 3 Xrotation Yrotation Zrotation
										JOINT mixamorig:RightHandMiddle3
										{
											OFFSET -3.903057 -0.179909 -0.137173
											CHANNELS 3 Xrotation Yrotation Zrotation
											JOINT mixamorig:RightHandMiddle4
											{
												OFFSET -2.366261 0.198380 -0.083987
												CHANNELS 3 Xrotation Yrotation Zrotation
												End Site
												{
													OFFSET -2.366409 0.198326 -0.079799
												}
											}
										}
									}
								}
								JOINT mixamorig:RightHandRing1
								{
									OFFSET -7.616104 -0.395126 -2.681268
									CHANNELS 3 Xrotation Yrotation Zrotation
									JOINT mixamorig:RightHandRing2
									{
										OFFSET -3.235790 -0.462120 -1.101476
										CHANNELS 3 Xrotation Yrotation Zrotation
										JOINT mixamorig:RightHandRing3
										{
											OFFSET -3.179264 -0.138618 -1.084847
											CHANNELS 3 Xrotation Yrotation Zrotation
											JOINT mixamorig:RightHandRing4
											{
												OFFSET -1.963291 -0.101624 -0.668250
												CHANNELS 3 Xrotation Yrotation Zrotation
												End Site
												{
													OFFSET -1.963745 -0.101669 -0.666919
												}
											}
										}
									}
								}
							}
						}
					}
				}
			}
		}
	}
	JOINT mixamorig:LeftUpLeg
	{
		OFFSET 10.205382 -3.823519 0.155145
		CHANNELS 3 Xrotation Yrotation Zrotation
		JOINT mixamorig:LeftLeg
		{
			OFFSET 0.283732 -12.998343 0.567794
			CHANNELS 3 Xrotation Yrotation Zrotation
			JOINT mixamorig:LeftFoot
			{
				OFFSET -1.058953 -10.688869 -2.184322
				CHANNELS 3 Xrotation Yrotation Zrotation
				JOINT mixamorig:LeftToeBase
				{
					OFFSET 0.108145 -7.191069 7.560211
					CHANNELS 3 Xrotation Yrotation Zrotation
					JOINT mixamorig:LeftToe_End
					{
						OFFSET 0.070226 0.081726 4.490266
						CHANNELS 3 Xrotation Yrotation Zrotation
						End Site
						{
							OFFSET 0.070226 0.081726 4.490267
						}
					}
				}
			}
		}
	}
	JOINT mixamorig:RightUpLeg
	{
		OFFSET -10.205383 -3.823513 0.005508
		CHANNELS 3 Xrotation Yrotation Zrotation
		JOINT mixamorig:RightLeg
		{
			OFFSET -0.283728 -12.998341 0.610627
			CHANNELS 3 Xrotation Yrotation Zrotation
			JOINT mixamorig:RightFoot
			{
				OFFSET 1.058956 -10.688892 -1.945833
				CHANNELS 3 Xrotation Yrotation Zrotation
				JOINT mixamorig:RightToeBase
				{
					OFFSET -0.108150 -7.191040 7.372945
					CHANNELS 3 Xrotation Yrotation Zrotation
					JOINT mixamorig:RightToe_End
					{
						OFFSET -0.070229 0.081738 4.479398
						CHANNELS 3 Xrotation Yrotation Zrotation
						End Site
						{
							OFFSET -0.070229 0.081738 4.479399
						}
					}
				}
			}
		}
	}
}
MOTION
Frames: 7
Frame Time: 0.016667
-11.988712 38.155819 15.310194 5.715752 -9.237626 -754.776283 13.993260 -1.754506 11.715269 6.314680 -0.214430 0.679745 6.311198 -0.336334 0.669039 -0.422096 3.283866 0.929820 -23.587220 7.156350 24.765945 -0.000000 0.000000 0.000000 0.456161 -3.143436 36.365242 -125.790324 -45.810769 -78.634076 -0.894737 -6.537036 -8.400587 5.021110 -12.141637 20.292379 16.279886 18.568846 5.781604 1.602362 37.280214 11.531259 -2.289503 -13.279001 -6.237955 0.000001 0.000003 0.000002 -4.870555 16.011613 15.884790 -0.165225 0.266182 0.381880 5.573624 0.572157 -12.032516 0.000003 0.000005 -0.000004 0.004764 -3.155252 17.468059 -0.137850 0.918788 -10.210141 -0.520193 1.587919 -24.669801 -0.000002 -0.000000 -0.000001 1.219706 -9.246203 11.418149 -3.673553 2.576133 -14.576985 1.296726 2.207256 3.588619 0.000003 0.000003 -0.000002 -0.097836 0.535283 -16.712180 39.523358 -19.007920 40.735948 179.462401 175.982870 -171.612970 18.184272 -2.608820 -2.421628 5.014538 -19.367486 -12.480445 -0.062509 -36.107594 -13.799759 1.603841 14.152293 7.697698 -0.000001 0.000000 0.000001 -6.975260 -7.141979 -34.965695 0.427881 -0.008584 1.182714 -1.656930 1.072540 -4.625097 0.000001 0.000006 0.000001 2.161940 8.733369 -28.622283 -0.048621 0.106591 1.202203 -0.267640 0.912720 1.697079 -0.000000 -0.000001 0.000001 6.691352 20.654193 -27.824024 -1.736004 0.044390 5.054045 0.878181 0.493731 -3.399443 0.000000 -0.000006 -0.000003 -31.323903 19.311255 45.171917 33.462200 4.937885 5.337148 -17.948538 34.252135 -13.296897 -4.113014 -0.000043 0.000018 -0.000000 0.000001 0.000000 -42.723373 15.156210 -47.405362 41.486685 -3.702745 0.251363 3.408960 -3.505388 17.689413 -6.884354 -0.000015 0.000026 -0.000000 -0.000002 -0.000000 
-12.277314 37.827950 15.425451 5.342374 -9.762716 -754.647985 14.008809 -1.754677 11.682638 6.424421 -0.212578 0.694224 6.421044 -0.336374 0.683294 -0.422006 3.276431 0.927713 -23.772260 7.124548 24.652717 -0.000001 -0.000000 -0.000000 0.350438 -2.901821 36.845196 -127.124369 -46.487651 -78.256237 -0.661411 -4.080659 -8.376550 3.572517 -12.863312 20.140766 16.279889 18.568846 5.781600 1.602365 37.280218 11.531256 -2.289508 -13.278995 -6.237953 -0.000001 -0.000004 -0.000002 -5.553456 15.464882 18.118702 -0.375479 0.189218 0.834602 5.356956 0.540663 -11.572969 -0.000004 0.000002 0.000001 0.053329 -3.491031 19.585719 -0.141958 0.819616 -9.610034 -0.522383 1.517449 -24.263168 0.000001 -0.000002 0.000001 1.496311 -9.532854 13.568254 -3.546616 2.433318 -14.006876 1.367594 2.158493 3.889816 -0.000002 0.000002 0.000003 -0.061555 0.537724 -15.375779 42.296278 -22.862673 38.474824 179.210299 173.334806 -171.587384 20.107923 -4.431773 -1.551496 5.014535 -19.367486 -12.480437 -0.062510 -36.107600 -13.799758 1.603845 14.152295 7.697701 0.000001 0.000003 -0.000002 -6.543578 -7.851456 -32.347199 0.427878 -0.008579 1.182721 -2.445736 1.464971 -6.893537 0.000001 0.000004 0.000001 1.859157 8.438813 -26.013108 -0.047731 0.090404 1.201753 -0.300894 1.146630 0.266106 0.000000 0.000001 0.000002 5.802609 20.551064 -25.052085 -1.732582 0.019736 5.052805 0.902845 0.551616 -3.743078 0.000001 -0.000004 0.000002 -28.882155 18.254473 44.353678 34.827107 5.090879 4.605399 -20.548786 36.678410 -12.671524 -3.872513 -0.000054 0.000003 0.000000 -0.000000 0.000000 -41.888061 16.542015 -46.274228 37.355179 -4.426747 0.887140 6.334658 -1.571691 17.629550 -6.228534 -0.000014 -0.000008 -0.000002 -0.000001 -0.000002 
-12.534645 37.464283 15.523036 4.933260 -10.011758 -754.171566 14.262503 -1.720079 11.597052 6.440839 -0.211083 0.602931 6.437108 -0.336469 0.592564 -0.421045 3.214930 0.910266 -23.785623 6.835521 24.515103 0.000000 -0.000001 0.000000 0.234892 -2.637195 37.021487 -127.332348 -46.082521 -77.991854 -0.587951 -3.303576 -8.371031 3.536220 -13.367444 20.212092 16.279884 18.568848 5.781602 1.602366 37.280207 11.531261 -2.289506 -13.278998 -6.237950 0.000001 0.000000 0.000001 -6.016323 15.067790 19.672292 -0.515431 0.136939 1.136615 5.075288 0.497049 -10.975026 -0.000002 -0.000000 -0.000001 0.094616 -3.724542 21.066262 -0.144119 0.752766 -9.205559 -0.524324 1.434069 -23.782036 -0.000002 0.000001 0.000001 1.696133 -9.727027 15.072785 -3.460292 2.337823 -13.622505 1.435856 2.112032 4.178942 -0.000000 0.000003 -0.000002 -0.106535 0.196812 -14.337298 45.365160 -25.671855 37.288393 178.923690 170.360655 -171.544340 21.569015 -5.835868 -0.526372 5.014533 -19.367483 -12.480443 -0.062509 -36.107597 -13.799752 1.603844 14.152295 7.697697 0.000000 0.000003 0.000000 -6.024522 -8.616760 -29.422502 0.427908 -0.008583 1.182724 -2.445769 1.464977 -6.893574 0.000000 0.000002 -0.000001 1.538897 8.095495 -23.114731 -0.044988 0.043772 1.200358 -0.368591 1.106984 0.539366 0.000000 0.000005 0.000001 4.822285 20.389219 -21.973422 -1.817310 -0.100492 5.345171 0.668344 0.452056 -3.210175 -0.000000 -0.000004 0.000004 -27.372055 16.481719 44.162121 37.807617 4.799055 3.420520 -22.626014 38.108644 -12.519899 -3.390753 -0.000007 0.000010 -0.000000 -0.000003 -0.000000 -41.619809 17.133562 -44.686745 35.009063 -4.433795 1.304670 8.788992 -0.066643 17.832145 -5.214039 -0.000009 -0.000011 0.000000 -0.000000 0.000001 
-12.764809 37.111160 15.609777 4.551314 -9.944484 -753.345331 14.647880 -1.669465 11.406398 6.382678 -0.208972 0.454609 6.378454 -0.334842 0.445283 -0.419350 3.102136 0.878263 -23.573307 6.342072 24.300831 -0.000001 -0.000001 0.000000 0.142255 -2.419177 36.860581 -126.559457 -44.706228 -78.031353 -0.656976 -4.033774 -8.376197 4.765187 -13.511258 20.497485 16.279879 18.568844 5.781605 1.602360 37.280211 11.531257 -2.289503 -13.278992 -6.237947 0.000001 0.000003 -0.000000 -6.126008 14.970351 20.045635 -0.674682 0.076436 1.480755 4.764783 0.445475 -10.314863 0.000001 0.000003 -0.000001 0.105492 -3.780612 21.423032 -0.145752 0.689506 -8.823072 -0.525654 1.338685 -23.231796 -0.000001 -0.000000 -0.000003 1.745070 -9.773023 15.435444 -3.377909 2.247860 -13.258236 1.516350 2.057878 4.518731 -0.000001 0.000007 -0.000004 -0.239121 -0.540977 -13.661000 48.370754 -27.201384 37.059783 178.644677 167.516127 -171.488524 22.533475 -6.654528 0.786790 5.014528 -19.367483 -12.480447 -0.062511 -36.107597 -13.799751 1.603843 14.152295 7.697697 -0.000002 -0.000001 -0.000000 -5.392730 -9.445183 -26.116058 0.427876 -0.008579 1.182716 -2.445741 1.464976 -6.893580 -0.000001 -0.000001 0.000004 1.200341 7.690643 -19.858760 -0.044195 -0.007606 1.272571 -0.438481 1.065049 0.823745 0.000001 0.000002 0.000002 3.733572 20.148565 -18.517912 -2.048500 -0.270203 6.086793 0.427203 0.346209 -2.658941 0.000001 -0.000002 0.000000 -26.446994 15.036523 43.665485 40.383278 4.319658 3.220832 -23.995619 38.310842 -12.840739 -2.773346 -0.000024 0.000006 -0.000000 0.000000 0.000000 -42.130680 16.504870 -42.365485 34.467908 -3.109936 1.223467 10.766195 0.524692 18.358024 -4.229405 -0.000018 -0.000008 0.000000 0.000001 -0.000001 
-12.953583 36.766632 15.675151 4.250608 -9.561533 -752.219989 15.004910 -1.620621 11.056396 6.293131 -0.204724 0.319923 6.288605 -0.328777 0.311661 -0.417103 2.946429 0.834098 -23.101715 5.732220 23.938524 0.000001 0.000000 0.000000 0.109140 -2.327298 36.302998 -125.044699 -42.717803 -78.626112 -0.824560 -5.800422 -8.392320 6.836049 -13.314060 20.914429 16.279884 18.568844 5.781601 1.602363 37.280214 11.531261 -2.289504 -13.278996 -6.237948 -0.000001 -0.000001 0.000001 -5.818595 15.240179 19.004436 -0.931631 -0.023490 2.037370 4.467926 0.392718 -9.682748 0.000000 0.000002 0.000000 0.076105 -3.624162 20.428983 -0.147299 0.602469 -8.296778 -0.526086 1.235475 -22.636565 -0.000003 -0.000001 -0.000000 1.609490 -9.644086 14.425059 -3.263466 2.124729 -12.756007 1.620195 1.989045 4.955170 -0.000002 -0.000000 -0.000002 -0.466463 -1.691030 -13.435413 50.902009 -27.206320 37.586159 178.418925 165.259664 -171.433568 23.157693 -6.864195 2.349253 5.014533 -19.367485 -12.480441 -0.062510 -36.107597 -13.799757 1.603840 14.152292 7.697700 -0.000001 0.000002 -0.000004 -4.614819 -10.341461 -22.335618 0.427881 -0.008584 1.182717 -2.445753 1.464984 -6.893580 0.000001 -0.000001 -0.000001 0.844677 7.208031 -16.163366 -0.053898 -0.070110 1.676730 -0.506731 1.022959 1.104740 -0.000000 -0.000000 -0.000002 2.519292 19.800829 -14.602833 -2.274673 -0.440705 6.818564 0.193805 0.240006 -2.120385 -0.000004 -0.000001 -0.000001 -25.649413 14.258329 42.639956 42.355325 4.028887 3.335933 -25.047729 38.555899 -13.219227 -2.432776 0.000008 0.000011 -0.000000 -0.000001 0.000000 -43.071829 14.410202 -39.750591 35.242318 -1.307599 1.024685 12.415015 1.062038 18.935009 -3.656669 -0.000011 0.000003 -0.000000 -0.000001 0.000004 
-13.079746 36.424675 15.726476 4.067904 -8.908467 -750.859088 15.174834 -1.590768 10.496592 6.219266 -0.197342 0.262993 6.214939 -0.316158 0.255426 -0.414576 2.760944 0.781514 -22.381027 5.105616 23.361264 -0.000001 0.000000 0.000000 0.165193 -2.433932 35.281055 -122.960522 -40.596974 -79.921129 -1.032510 -7.976105 -8.419432 9.219640 -12.925418 21.311184 16.279877 18.568844 5.781606 1.602361 37.280214 11.531262 -2.289509 -13.278996 -6.237956 0.000000 0.000000 -0.000004 -5.104034 15.829706 16.641232 -0.950597 -0.030987 2.078558 4.222471 0.346546 -9.159392 -0.000002 -0.000003 0.000003 0.019789 -3.268930 18.183668 -0.147767 0.560298 -8.041786 -0.525601 1.148217 -22.133248 0.000001 -0.000001 -0.000003 1.311939 -9.344221 12.144495 -3.146951 2.001562 -12.249259 1.738604 1.911951 5.450342 -0.000002 0.000002 -0.000002 -0.801407 -3.222462 -13.788022 52.611089 -25.520157 38.694610 178.283592 163.929267 -171.396562 23.717217 -6.529718 3.969802 5.014528 -19.367481 -12.480440 -0.062509 -36.107594 -13.799753 1.603841 14.152295 7.697701 0.000001 0.000001 -0.000001 -3.649404 -11.303086 -17.977522 0.427876 -0.008595 1.182720 -2.445753 1.464986 -6.893580 -0.000003 -0.000001 0.000002 0.477193 6.628780 -11.939464 -0.063465 -0.134521 2.092831 -0.574704 0.979779 1.388473 -0.000000 0.000001 -0.000001 1.166857 19.308212 -10.141214 -2.500756 -0.615700 7.556453 -0.036856 0.131370 -1.582905 0.000001 -0.000002 0.000001 -24.915108 13.905837 41.196433 43.918161 3.843635 3.353794 -26.156563 38.747250 -13.272963 -2.489506 -0.000005 0.000018 -0.000000 0.000001 -0.000000 -43.832042 10.971252 -37.153528 36.531147 0.678729 0.807831 13.853207 1.540293 19.690599 -3.721302 -0.000012 -0.000008 -0.000000 -0.000000 -0.000001 
-13.118988 36.083115 15.776622 4.014372 -8.067995 -749.324153 15.067659 -1.583178 9.717016 6.187453 -0.186811 0.314322 6.183836 -0.296503 0.306902 -0.412016 2.559701 0.724459 -21.474378 4.538027 22.528380 -0.000001 -0.000001 0.000000 0.322905 -2.788908 33.742255 -120.334778 -38.790669 -81.855555 -1.225118 -9.969961 -8.451469 11.450547 -12.544447 21.518128 16.279886 18.568841 5.781601 1.602366 37.280211 11.531254 -2.289504 -13.278995 -6.237948 0.000003 0.000003 0.000001 -4.068533 16.599371 13.338970 -0.950594 -0.030981 2.078545 4.049098 0.312513 -8.789284 0.000002 0.000007 -0.000002 -0.035178 -2.773008 15.070430 -0.148021 0.517217 -7.781314 -0.524638 1.075539 -21.714100 0.000000 0.000002 -0.000003 0.920053 -8.909374 8.986452 -3.010162 1.859744 -11.660081 1.865189 1.831092 5.976838 0.000001 0.000004 -0.000001 -1.266864 -5.060882 -14.860757 53.298777 -22.144496 40.334473 178.255438 163.654556 -171.388489 24.475921 -5.737254 5.349277 5.014528 -19.367483 -12.480445 -0.062502 -36.107594 -13.799753 1.603843 14.152294 7.697697 -0.000001 -0.000001 -0.000000 -2.460339 -12.305106 -12.983907 0.427881 -0.008576 1.182712 -2.445746 1.464989 -6.893585 -0.000001 0.000002 0.000001 0.113226 5.939447 -7.146089 -0.073187 -0.203526 2.537979 -0.645680 0.933456 1.688278 -0.000002 0.000002 0.000000 -0.311392 18.629840 -5.101228 -2.787459 -0.844470 8.502188 -0.231286 0.041984 -1.155544 0.000002 -0.000002 -0.000001 -24.140489 13.761207 39.256219 45.170797 3.786556 3.328683 -27.423049 38.877666 -12.983736 -2.891448 -0.000020 0.000017 0.000000 0.000003 -0.000000 -43.868693 6.697902 -34.645168 37.549593 2.551013 0.608770 15.064332 1.974427 20.922080 -4.352585 -0.000014 0.000033 -0.000000 0.000003 -0.000002 
